<svg xmlns="http://www.w3.org/2000/svg" width="20" height="20" viewBox="0 0 20 20"><defs><style>.a{fill:#30D88B;}</style></defs><path class="a" d="M17.857,2.5H15.714V.469A.506.506,0,0,0,15.179,0H13.393a.506.506,0,0,0-.536.469V2.5H7.143V.469A.506.506,0,0,0,6.607,0H4.821a.506.506,0,0,0-.536.469V2.5H2.143A2.022,2.022,0,0,0,0,4.375v13.75A2.022,2.022,0,0,0,2.143,20H17.857A2.022,2.022,0,0,0,20,18.125V4.375A2.022,2.022,0,0,0,17.857,2.5Zm-.268,15.625H2.411a.253.253,0,0,1-.268-.234V6.25H17.857V17.891A.253.253,0,0,1,17.589,18.125ZM15.23,10.287,8.877,15.8a.591.591,0,0,1-.758,0L4.767,12.842a.429.429,0,0,1,0-.663l1.014-.88a.591.591,0,0,1,.758,0l1.969,1.737,4.959-4.3a.591.591,0,0,1,.758,0l1.006.887a.429.429,0,0,1,0,.663Z"/></svg>