<svg xmlns="http://www.w3.org/2000/svg" xmlns:xlink="http://www.w3.org/1999/xlink" width="47.308" height="34.223" viewBox="0 0 47.308 34.223"><defs><style>.a{fill:rgba(77,207,224,0);}.b{fill:rgba(212,225,244,0);}.c{fill:url(#a);}</style><linearGradient id="a" x1="0.5" x2="0.5" y2="1" gradientUnits="objectBoundingBox"><stop offset="0" stop-color="#279dd1"/><stop offset="0.157" stop-color="#23a0b1"/><stop offset="0.861" stop-color="#3ad29f"/><stop offset="1" stop-color="#3ad29f"/></linearGradient></defs><g transform="translate(0 -67.919)"><path class="a" d="M21.712,90.638a1.007,1.007,0,1,0-1.007-1.007A1.01,1.01,0,0,0,21.712,90.638ZM42.85,98.69a1.007,1.007,0,1,0-1.007-1.007A1.01,1.01,0,0,0,42.85,98.69ZM48.889,84.6v18.118a1.01,1.01,0,0,1-1.007,1.007H16.68a1.01,1.01,0,0,1-1.007-1.007V84.6a1.01,1.01,0,0,1,1.007-1.007h31.2A1.01,1.01,0,0,1,48.889,84.6ZM32.281,98.69a5.033,5.033,0,1,0-5.033-5.033A5.048,5.048,0,0,0,32.281,98.69Z" transform="translate(-14.163 -14.163)"/><path class="b" d="M140.87,135.837a5.033,5.033,0,1,1-5.033,5.033A5.048,5.048,0,0,1,140.87,135.837Z" transform="translate(-122.752 -61.375)"/><g transform="translate(0 67.919)"><path class="c" d="M33.719,91.07H2.516A2.492,2.492,0,0,1,0,88.553V70.435a2.492,2.492,0,0,1,2.516-2.516h31.2a2.492,2.492,0,0,1,2.516,2.516V88.553A2.492,2.492,0,0,1,33.719,91.07ZM3.02,88.05h30.2V70.939H3.02Z" transform="translate(0 -67.919)"/><path class="c" d="M126.707,133.249a6.543,6.543,0,1,1,6.543-6.543A6.53,6.53,0,0,1,126.707,133.249Zm0-10.065a3.523,3.523,0,1,0,3.523,3.523A3.5,3.5,0,0,0,126.707,123.184Z" transform="translate(-108.589 -115.131)"/><path class="c" d="M101.638,157.981H69.429a1.51,1.51,0,0,1,0-3.02h30.7V137.347a1.51,1.51,0,0,1,3.02,0v19.124A1.483,1.483,0,0,1,101.638,157.981Z" transform="translate(-61.376 -129.294)"/><path class="c" d="M159.107,215.451H126.9a1.51,1.51,0,0,1,0-3.02h30.7V194.817a1.51,1.51,0,0,1,3.02,0v19.124A1.483,1.483,0,0,1,159.107,215.451Z" transform="translate(-113.309 -181.228)"/><path class="c" d="M274.19,208.789a2.516,2.516,0,1,1,2.516-2.516A2.492,2.492,0,0,1,274.19,208.789Zm0-3.02a.5.5,0,1,0,.5.5A.475.475,0,0,0,274.19,205.769Z" transform="translate(-245.504 -190.671)"/><path class="c" d="M54.761,125.2a2.516,2.516,0,1,1,2.516-2.516A2.492,2.492,0,0,1,54.761,125.2Zm0-3.02a.5.5,0,1,0,.5.5A.475.475,0,0,0,54.761,122.177Z" transform="translate(-47.212 -115.131)"/></g></g></svg>
