<svg xmlns="http://www.w3.org/2000/svg" xmlns:xlink="http://www.w3.org/1999/xlink" width="73.173" height="60.715" viewBox="0 0 73.173 60.715"><defs><style>.a{fill:rgba(212,225,244,0);}.b{fill:rgba(58,210,159,0);}.c{fill:url(#a);}</style><linearGradient id="a" x1="0.177" y1="0.191" x2="0.875" y2="0.931" gradientUnits="objectBoundingBox"><stop offset="0" stop-color="#279dd1"/><stop offset="0.157" stop-color="#23a0b1"/><stop offset="0.861" stop-color="#3ad29f"/><stop offset="1" stop-color="#3ad29f"/></linearGradient></defs><g transform="translate(0 -37.093)"><path class="a" d="M83.582,78.474v.088H66.3L61.034,90.845H38.222L32.957,78.562H15.673v-.088l9.739-25.707H73.843Z" transform="translate(-13.041 -13.042)"/><path class="b" d="M83.582,206.367v27.9a1.76,1.76,0,0,1-1.755,1.755h-64.4a1.76,1.76,0,0,1-1.755-1.755v-27.9H32.957l5.264,12.283H61.034L66.3,206.367Z" transform="translate(-13.041 -140.847)"/><g transform="translate(0 37.093)"><path class="c" d="M73,64.555,63.259,38.76A2.559,2.559,0,0,0,60.8,37.093H12.371A2.687,2.687,0,0,0,9.914,38.76L.175,64.467A3.767,3.767,0,0,0,0,65.52v27.9a4.344,4.344,0,0,0,4.387,4.387h64.4a4.344,4.344,0,0,0,4.387-4.387V65.52A3.736,3.736,0,0,0,73,64.555Zm-58.784-22.2H59.048l7.721,20.531H53.257A2.7,2.7,0,0,0,50.8,64.467l-4.562,10.7h-19.3l-4.562-10.7a2.7,2.7,0,0,0-2.457-1.579H6.4ZM5.264,92.543V68.152h12.9l4.562,10.7a2.7,2.7,0,0,0,2.457,1.579H47.993a2.7,2.7,0,0,0,2.457-1.579l4.562-10.7h12.9V92.543H5.264Z" transform="translate(0 -37.093)"/><path class="c" d="M147.873,113.405a2.83,2.83,0,0,1-1.842-.7l-7.37-7.107a2.606,2.606,0,1,1,3.6-3.773l5.615,5.44,12.371-10.616a2.612,2.612,0,0,1,3.422,3.948l-14.038,12.2A2.683,2.683,0,0,1,147.873,113.405Z" transform="translate(-114.708 -86.119)"/></g></g></svg>