<svg xmlns="http://www.w3.org/2000/svg" width="20" height="20" viewBox="0 0 20 20"><defs><style>.a{fill:#30D88B;}</style></defs><path class="a" d="M28,17.981a10,10,0,0,1-16.276,7.8.967.967,0,0,1-.074-1.436L12.1,23.9a.969.969,0,0,1,1.286-.08,7.42,7.42,0,1,0-.474-11.222l2.047,2.047a.645.645,0,0,1-.456,1.1H8.645A.645.645,0,0,1,8,15.1V9.235a.645.645,0,0,1,1.1-.456l1.991,1.991A10,10,0,0,1,28,17.981Zm-7.295,3.177.4-.509a.968.968,0,0,0-.17-1.358L19.29,18.014V13.806a.968.968,0,0,0-.968-.968h-.645a.968.968,0,0,0-.968.968v5.47l2.637,2.051A.968.968,0,0,0,20.705,21.158Z" transform="translate(-8 -8)"/></svg>