<svg xmlns="http://www.w3.org/2000/svg" xmlns:xlink="http://www.w3.org/1999/xlink" width="147.618" height="136.593" viewBox="0 0 147.618 136.593"><defs><style>.a{fill:#279dd1;}.b{fill:#514abf;}.c{fill:url(#a);}.d{fill:#3ad29f;}.e{fill:url(#d);}.f{opacity:0.2;}.g{filter:url(#b);}</style><linearGradient id="a" x1="0.5" y1="1" x2="0.5" gradientUnits="objectBoundingBox"><stop offset="0" stop-opacity="0.122"/><stop offset="0.551" stop-opacity="0.09"/><stop offset="1" stop-opacity="0.02"/></linearGradient><filter id="b" x="0" y="40.441" width="147.618" height="96.152" filterUnits="userSpaceOnUse"><feOffset dx="3" dy="3" input="SourceAlpha"/><feGaussianBlur stdDeviation="3" result="c"/><feFlood flood-opacity="0.243"/><feComposite operator="in" in2="c"/><feComposite in="SourceGraphic"/></filter><linearGradient id="d" x1="14.124" y1="-1.935" x2="14.124" y2="-2.759" gradientUnits="objectBoundingBox"><stop offset="0" stop-color="gray" stop-opacity="0.251"/><stop offset="0.535" stop-color="gray" stop-opacity="0.122"/><stop offset="1" stop-color="gray" stop-opacity="0.102"/></linearGradient></defs><g transform="translate(6)"><path class="a" d="M21.661,71.047,0,46.441,64.809,0l64.809,46.441L107.611,71.047Z"/><path class="b" d="M21.661,71.047,0,46.441,64.809,0l64.809,46.441L107.611,71.047Z"/><rect class="a" width="126" height="55" transform="translate(0.117 49.796)"/><rect class="c" width="126" height="55" transform="translate(0.117 49.796)"/><g class="g" transform="matrix(1, 0, 0, 1, -6, 0)"><path class="a" d="M129.618,346.152H0V268l64.809,39.163L129.618,268Z" transform="translate(6 -221.56)"/></g><path class="d" d="M266.5,66.531,252.752,55.99l-36.414,47.489L196.114,87.972l-10.541,13.747,27.1,20.746h0l6.948,5.207Z" transform="translate(-153.416 -46.288)"/><path class="e" d="M.694,108.537l-.515.252.059-.105-.045.015.063-.047L7.193,96.307l3.546,3.023,3.042,2.816-.873.426.982,1.732Z" transform="translate(-0.148 -79.618)"/><path class="a" d="M12.232,115.617l2.78,2.578-12.6,6.265,6.706-8.6Z" transform="translate(-1.993 -95.582)"/><path class="f" d="M12.232,115.617l2.78,2.578-12.6,6.265,6.706-8.6Z" transform="translate(-1.993 -95.582)"/><path class="a" d="M8.989,99.66,2.411,111.268l9.821-8.843Z" transform="translate(-1.993 -82.39)"/><path class="a" d="M15.158,124.26,2.489,128.445l10.59-7.906Z" transform="translate(-2.058 -99.651)"/><path class="a" d="M673.718,33.951l-2.776,4.812,20.351,3.314-13.107-9.128Z" transform="translate(-554.677 -27.239)"/><path class="f" d="M673.718,33.951l-2.776,4.812,20.351,3.314-13.107-9.128Z" transform="translate(-554.677 -27.239)"/><path class="a" d="M690.3,8.293l14.233,13.4-17.575-8.126Z" transform="translate(-567.918 -6.856)"/><path class="a" d="M675.274,53.683l19.545.373-18.246-6.481Z" transform="translate(-558.258 -39.332)"/></g></svg>