<svg xmlns="http://www.w3.org/2000/svg" xmlns:xlink="http://www.w3.org/1999/xlink" width="72.161" height="71.219" viewBox="0 0 72.161 71.219"><defs><style>.a{fill:rgba(212,225,244,0);}.b{fill:rgba(58,210,159,0);}.c{fill:url(#a);}</style><linearGradient id="a" x1="0.322" y1="-0.209" x2="1.194" y2="0.844" gradientUnits="objectBoundingBox"><stop offset="0" stop-color="#279dd1"/><stop offset="0.157" stop-color="#23a0b1"/><stop offset="0.861" stop-color="#3ad29f"/><stop offset="1" stop-color="#3ad29f"/></linearGradient></defs><g transform="translate(0 -2.877)"><path class="a" d="M174.519,243.722a8.9,8.9,0,1,1-8.9,8.9A8.951,8.951,0,0,1,174.519,243.722Z" transform="translate(-138.481 -201.384)"/><g transform="translate(2.568 30.954)"><path class="b" d="M29.027,174.237v2.654A10.521,10.521,0,0,1,18.5,187.42H15.673v-11.47a1.717,1.717,0,0,1,1.712-1.712Z" transform="translate(-15.673 -174.237)"/><path class="b" d="M29.027,351.949V354.6H17.385a1.717,1.717,0,0,1-1.712-1.712V341.42H18.5A10.521,10.521,0,0,1,29.027,351.949Z" transform="translate(-15.673 -314.028)"/><path class="b" d="M356.165,341.42v11.47a1.717,1.717,0,0,1-1.712,1.712H342.726v-2.654a10.521,10.521,0,0,1,10.529-10.529h2.911Z" transform="translate(-289.14 -314.028)"/><path class="b" d="M356.166,175.949v11.47h-2.91a10.521,10.521,0,0,1-10.529-10.529v-2.654h11.727A1.717,1.717,0,0,1,356.166,175.949Z" transform="translate(-289.141 -174.237)"/></g><path class="b" d="M82.7,187.42v14.21h-2.91a10.521,10.521,0,0,0-10.529,10.529v2.654H29.027v-2.654A10.521,10.521,0,0,0,18.5,201.629H15.673V187.42H18.5a10.521,10.521,0,0,0,10.529-10.529v-2.654H69.259v2.654A10.521,10.521,0,0,0,79.788,187.42H82.7Zm-24.653,7.1a8.9,8.9,0,1,0-8.9,8.9A8.951,8.951,0,0,0,58.046,194.524Z" transform="translate(-13.105 -143.283)"/><g transform="translate(0 2.877)"><path class="c" d="M67.882,158.563H4.28A4.239,4.239,0,0,0,0,162.843v37.151a4.238,4.238,0,0,0,4.28,4.28h63.6a4.238,4.238,0,0,0,4.28-4.28V162.843A4.238,4.238,0,0,0,67.882,158.563Zm-.856,13.183h-.342a8,8,0,0,1-7.961-7.961V163.7h8.3v8.046ZM53.586,199.052h0l-35.1.086v-.086a13.152,13.152,0,0,0-13.1-13.1H5.136v-9.074h.257a13.152,13.152,0,0,0,13.1-13.1V163.7h35.1v.086a13.152,13.152,0,0,0,13.1,13.1h.342v9.074h-.342A13.152,13.152,0,0,0,53.586,199.052ZM13.354,163.7h0a8.019,8.019,0,0,1-7.961,8.046H5.136V163.7ZM5.136,191.091h.257a8,8,0,0,1,7.961,7.961v.086H5.136Zm53.586,8.046h0a8.019,8.019,0,0,1,7.961-8.046h.342v8.046h-8.3Z" transform="translate(0 -133.055)"/><path class="c" d="M161.413,250.99a11.47,11.47,0,1,1,11.47-11.471A11.471,11.471,0,0,1,161.413,250.99Zm0-17.8a6.334,6.334,0,1,0,6.334,6.334A6.432,6.432,0,0,0,161.413,233.185Z" transform="translate(-125.376 -191.156)"/><path class="c" d="M119.928,5.359V5.1a.315.315,0,0,0-.086-.257c0-.086-.086-.171-.086-.257s-.086-.171-.086-.257-.086-.086-.086-.171c-.086-.086-.086-.171-.171-.257a.084.084,0,0,0-.086-.086l-.086-.086c-.086-.086-.086-.171-.171-.171L118.9,3.39c-.086-.086-.171-.086-.171-.171-.086,0-.171-.086-.257-.086s-.171-.086-.257-.086-.171-.086-.257-.086a.315.315,0,0,1-.257-.086H103.922a2.522,2.522,0,0,0-2.568,2.568,2.522,2.522,0,0,0,2.568,2.568h6.163l-9.074,7.276L89.284,4.589A2.992,2.992,0,0,0,87.4,3.9a2.409,2.409,0,0,0-1.8.856l-12.669,14.3a2.561,2.561,0,0,0,.171,3.6,2.719,2.719,0,0,0,1.712.685,2.428,2.428,0,0,0,1.883-.856L87.743,10.153,99.214,20.6a2.493,2.493,0,0,0,3.339.086l12.241-9.93v8.132a2.568,2.568,0,0,0,5.136,0V5.444S119.928,5.359,119.928,5.359Z" transform="translate(-60.436 -2.877)"/></g></g></svg>