<svg xmlns="http://www.w3.org/2000/svg" width="20" height="17.778" viewBox="0 0 20 17.778"><defs><style>.a{fill:#30D88B;}</style></defs><path class="a" d="M3.333,4.444A2.222,2.222,0,1,0,1.111,2.222,2.222,2.222,0,0,0,3.333,4.444Zm0,6.114a1.532,1.532,0,0,1,.474-1.111l2.5-2.364a1.478,1.478,0,0,1,.195-.124,2.219,2.219,0,0,0-2.062-1.4H2.222A2.222,2.222,0,0,0,0,7.778v3.333a1.111,1.111,0,0,0,1.111,1.111v4.444a1.111,1.111,0,0,0,1.111,1.111H4.444a1.111,1.111,0,0,0,1.111-1.111V13.32l-1.749-1.65a1.531,1.531,0,0,1-.474-1.111ZM16.667,4.444a2.222,2.222,0,1,0-2.222-2.222A2.222,2.222,0,0,0,16.667,4.444Zm1.111,1.111H15.556a2.219,2.219,0,0,0-2.062,1.4,1.329,1.329,0,0,1,.2.125l2.5,2.363a1.541,1.541,0,0,1,0,2.222L14.444,13.32v3.347a1.111,1.111,0,0,0,1.111,1.111h2.222a1.111,1.111,0,0,0,1.111-1.111V12.222A1.111,1.111,0,0,0,20,11.111V7.778A2.222,2.222,0,0,0,17.778,5.556Zm-2.347,4.7-2.5-2.363a.417.417,0,0,0-.7.3v1.25H7.778V8.194a.417.417,0,0,0-.7-.3l-2.5,2.364a.431.431,0,0,0,0,.607l2.5,2.364a.417.417,0,0,0,.7-.3V11.667h4.444v1.255a.417.417,0,0,0,.7.3l2.5-2.364a.431.431,0,0,0,0-.607Z"/></svg>