<svg xmlns="http://www.w3.org/2000/svg" width="18.495" height="24.304" viewBox="0 0 18.495 24.304"><defs><style>.a{fill:#3ad29f;}</style></defs><g transform="translate(-52.507)"><g transform="translate(53.374 0.867)"><path class="a" d="M84.941,275.147H68.18a8.386,8.386,0,1,1,16.761,0Z" transform="translate(-68.18 -252.578)"/><path class="a" d="M5.028,0A5.028,5.028,0,1,1,0,5.028,5.028,5.028,0,0,1,5.028,0Z" transform="translate(3.352)"/></g><g transform="translate(52.507)"><path class="a" d="M119.005,11.791a5.9,5.9,0,1,1,5.9-5.9A5.92,5.92,0,0,1,119.005,11.791Zm0-10.057A4.161,4.161,0,1,0,123.167,5.9,4.181,4.181,0,0,0,119.005,1.734Z" transform="translate(-109.758)"/><path class="a" d="M70.135,261.208H53.374a.851.851,0,0,1-.867-.867,9.253,9.253,0,1,1,18.5,0A.852.852,0,0,1,70.135,261.208ZM54.27,259.475H69.21a7.489,7.489,0,0,0-14.941,0Z" transform="translate(-52.507 -236.905)"/></g></g></svg>