<svg xmlns="http://www.w3.org/2000/svg" width="21.887" height="22.798" viewBox="0 0 21.887 22.798"><defs><style>.a{fill:none;stroke:#fff;}</style></defs><path class="a" d="M39.235,21.611l-1.871-1.081a8.461,8.461,0,0,0,0-3.084l1.871-1.081a.531.531,0,0,0,.242-.615,10.941,10.941,0,0,0-2.4-4.156.529.529,0,0,0-.65-.1l-1.871,1.081a8.29,8.29,0,0,0-2.671-1.542V8.877a.526.526,0,0,0-.413-.514,11.043,11.043,0,0,0-4.8,0,.526.526,0,0,0-.413.514v2.161a8.552,8.552,0,0,0-2.671,1.542L21.721,11.5a.522.522,0,0,0-.65.1,10.875,10.875,0,0,0-2.4,4.156.525.525,0,0,0,.242.615l1.871,1.081a8.461,8.461,0,0,0,0,3.084L18.91,21.616a.531.531,0,0,0-.242.615,10.941,10.941,0,0,0,2.4,4.156.529.529,0,0,0,.65.1l1.871-1.081a8.29,8.29,0,0,0,2.671,1.542V29.11a.526.526,0,0,0,.413.514,11.043,11.043,0,0,0,4.8,0,.526.526,0,0,0,.413-.514V26.949a8.552,8.552,0,0,0,2.671-1.542l1.871,1.081a.522.522,0,0,0,.65-.1,10.875,10.875,0,0,0,2.4-4.156A.542.542,0,0,0,39.235,21.611ZM29.071,22.5a3.514,3.514,0,1,1,3.514-3.514A3.519,3.519,0,0,1,29.071,22.5Z" transform="translate(-18.127 -7.594)"/></svg>