<svg xmlns="http://www.w3.org/2000/svg" xmlns:xlink="http://www.w3.org/1999/xlink" width="40.511" height="40.462" viewBox="0 0 40.511 40.462"><defs><style>.a{fill:none;}.b{fill:url(#a);}</style><linearGradient id="a" x1="0.5" x2="0.5" y2="1" gradientUnits="objectBoundingBox"><stop offset="0" stop-color="#279dd1"/><stop offset="0.157" stop-color="#23a0b1"/><stop offset="0.861" stop-color="#3ad29f"/><stop offset="1" stop-color="#3ad29f"/></linearGradient></defs><g transform="translate(0 -0.261)"><path class="a" d="M33.369,53.116a.961.961,0,0,1-1.392,0L15.971,37.11a.961.961,0,0,1,0-1.392L35.755,15.935l16.055.4a1.031,1.031,0,0,1,.994.994l.4,16.055Zm12.377-25.55a4.225,4.225,0,1,0-4.225,4.225A4.222,4.222,0,0,0,45.746,27.567Z" transform="translate(-14.182 -14.183)"/><g transform="translate(0 0.261)"><path class="b" d="M18.491,40.723a2.412,2.412,0,0,1-1.74-.746L.746,23.971a2.4,2.4,0,0,1,0-3.479L20.529.708A1.542,1.542,0,0,1,21.623.261l16.055.4h0a2.486,2.486,0,0,1,2.436,2.336v.1l.4,16.055a1.542,1.542,0,0,1-.447,1.094L20.231,39.977A2.412,2.412,0,0,1,18.491,40.723ZM3.182,22.232l15.31,15.31L37.529,18.6,37.181,3.641,22.219,3.293Z" transform="translate(0 -0.261)"/><path class="b" d="M232.981,89.538a5.716,5.716,0,1,1,5.716-5.716A5.749,5.749,0,0,1,232.981,89.538Zm0-8.45a2.734,2.734,0,1,0,2.734,2.734A2.758,2.758,0,0,0,232.981,81.088Z" transform="translate(-205.642 -70.699)"/></g></g></svg>